<svg width="5" height="9" viewBox="0 0 5 9" fill="none" xmlns="http://www.w3.org/2000/svg">
<path d="M5 0.755245C5 0.534965 4.91018 0.346154 4.79042 0.22028C4.64072 0.0629371 4.46108 8.2532e-09 4.28144 0C4.07186 -9.62873e-09 3.89222 0.062937 3.77245 0.22028L0.209581 3.96503C0.0598803 4.09091 9.16107e-09 4.27972 0 4.5C-7.85235e-09 4.68881 0.0598802 4.87762 0.209581 5.03497L3.77245 8.77972C3.89222 8.90559 4.07186 9 4.28144 9C4.46108 9 4.64072 8.90559 4.79042 8.77972C4.91018 8.62238 5 8.43357 5 8.24476V0.755245Z" fill="#303446"/>
</svg>
