<svg width="5" height="9" viewBox="0 0 5 9" fill="none" xmlns="http://www.w3.org/2000/svg">
<path d="M-8.87649e-07 8.24475C-9.06906e-07 8.46503 0.0898195 8.65385 0.20958 8.77972C0.359281 8.93706 0.538921 9 0.718562 9C0.928143 9 1.10778 8.93706 1.22754 8.77972L4.79042 5.03497C4.94012 4.90909 5 4.72028 5 4.5C5 4.31119 4.94012 4.12238 4.79042 3.96503L1.22755 0.220279C1.10778 0.0944048 0.928144 -3.55973e-07 0.718563 -3.74295e-07C0.538922 -3.9e-07 0.359281 0.0944048 0.209581 0.220279C0.0898202 0.377622 -2.16389e-07 0.566433 -2.32895e-07 0.755244L-8.87649e-07 8.24475Z" fill="#303446"/>
</svg>
